<mxfile host="app.diagrams.net" modified="2022-12-15T19:31:54.561Z" agent="5.0 (Windows NT 10.0; Win64; x64) AppleWebKit/537.36 (KHTML, like Gecko) Chrome/108.0.0.0 Safari/537.36" version="20.7.3" etag="3yBmshcbU-r1XXmY8Njc" type="github">
  <diagram id="F2SXuoXoh_ym5eOzL1Zt" name="Page-1">
    <mxGraphModel dx="1434" dy="798" grid="1" gridSize="10" guides="1" tooltips="1" connect="1" arrows="1" fold="1" page="1" pageScale="1" pageWidth="850" pageHeight="1100" math="0" shadow="0">
      <root>
        <mxCell id="0" />
        <mxCell id="1" parent="0" />
        <mxCell id="C42JNdzIE1kT5Vi3d36W-9" style="edgeStyle=orthogonalEdgeStyle;rounded=0;orthogonalLoop=1;jettySize=auto;html=1;entryX=0.5;entryY=0;entryDx=0;entryDy=0;" edge="1" parent="1" source="C42JNdzIE1kT5Vi3d36W-2" target="C42JNdzIE1kT5Vi3d36W-5">
          <mxGeometry relative="1" as="geometry" />
        </mxCell>
        <mxCell id="C42JNdzIE1kT5Vi3d36W-2" value="&lt;font style=&quot;font-size: 24px;&quot;&gt;Missing emotional support of leader&lt;/font&gt;" style="rounded=0;whiteSpace=wrap;html=1;" vertex="1" parent="1">
          <mxGeometry x="450" y="205" width="260" height="130" as="geometry" />
        </mxCell>
        <mxCell id="C42JNdzIE1kT5Vi3d36W-7" style="edgeStyle=orthogonalEdgeStyle;rounded=0;orthogonalLoop=1;jettySize=auto;html=1;entryX=0;entryY=0.5;entryDx=0;entryDy=0;" edge="1" parent="1" source="C42JNdzIE1kT5Vi3d36W-3" target="C42JNdzIE1kT5Vi3d36W-2">
          <mxGeometry relative="1" as="geometry" />
        </mxCell>
        <mxCell id="C42JNdzIE1kT5Vi3d36W-3" value="&lt;font style=&quot;font-size: 24px;&quot;&gt;Gender&lt;/font&gt;" style="rounded=0;whiteSpace=wrap;html=1;" vertex="1" parent="1">
          <mxGeometry x="160" y="240" width="120" height="60" as="geometry" />
        </mxCell>
        <mxCell id="C42JNdzIE1kT5Vi3d36W-6" style="edgeStyle=orthogonalEdgeStyle;rounded=0;orthogonalLoop=1;jettySize=auto;html=1;entryX=0.5;entryY=0;entryDx=0;entryDy=0;" edge="1" parent="1" source="C42JNdzIE1kT5Vi3d36W-4" target="C42JNdzIE1kT5Vi3d36W-2">
          <mxGeometry relative="1" as="geometry" />
        </mxCell>
        <mxCell id="C42JNdzIE1kT5Vi3d36W-4" value="&lt;font style=&quot;font-size: 24px;&quot;&gt;Age&lt;/font&gt;" style="rounded=0;whiteSpace=wrap;html=1;" vertex="1" parent="1">
          <mxGeometry x="160" y="150" width="120" height="60" as="geometry" />
        </mxCell>
        <mxCell id="C42JNdzIE1kT5Vi3d36W-8" style="edgeStyle=orthogonalEdgeStyle;rounded=0;orthogonalLoop=1;jettySize=auto;html=1;" edge="1" parent="1" source="C42JNdzIE1kT5Vi3d36W-5" target="C42JNdzIE1kT5Vi3d36W-2">
          <mxGeometry relative="1" as="geometry" />
        </mxCell>
        <mxCell id="C42JNdzIE1kT5Vi3d36W-5" value="&lt;span style=&quot;line-height: 107%; font-family: Calibri, sans-serif;&quot;&gt;&lt;font style=&quot;font-size: 24px;&quot;&gt;I&lt;br/&gt;can connect with my leader as well as if I were in the office.&lt;/font&gt;&lt;/span&gt;" style="rounded=0;whiteSpace=wrap;html=1;" vertex="1" parent="1">
          <mxGeometry x="440" y="440" width="280" height="100" as="geometry" />
        </mxCell>
      </root>
    </mxGraphModel>
  </diagram>
</mxfile>
